#!OML:ASF H:\Terrain\Patient Classification 1\Walking\liu\liu.ASF
:FULLY-SPECIFIED
:DEGREES
111
root 9.60599794907 16.983285994 19.5177027377 6.38104407113 -1.46563227487 -6.80154762777
lowerback -7.62009490382 3.30537729667 3.18522647674
upperback 0.255393984434 3.94753242309 3.78156955081
thorax 4.48519955646 1.98640035509 2.59567454524
lowerneck -19.3282320963 -6.34887339658 -13.6698881101
upperneck 21.4336330049 -8.14076904896 13.3077667757
head 11.3072945631 -3.29218388787 5.919779317
rclavicle 4.29496223235e-14 2.02584062292e-15
rhumerus -25.9616390609 15.5847294105 -83.8207840455
rradius 40.6121058386
rwrist -19.9322496219
rhand -30.591996151 -22.1634656207
rfingers 7.12502
rthumb -3.88912081373 -52.1076406843
lclavicle 4.29496223235e-14 2.02584062292e-15
lhumerus -52.3984499777 -10.0904176704 95.9485467212
lradius 26.7116668164
lwrist 8.71656226097
lhand -11.5404671733 -25.8952405127
lfingers 7.12502
lthumb 14.4997719649 3.57794508331
rfemur 14.4562181912 6.12607044649 32.6036338481
rtibia 0.00156903410678
rfoot -8.81545590608 6.46736399565
rtoes -11.2185031691
lfemur -42.7728719756 -4.38555768076 -8.87843709564
ltibia 19.9212142545
lfoot -16.246571025 15.4661321012
ltoes -13.9206803364
112
root 9.66127498437 16.9277165505 20.0623502748 6.47520222439 -1.48963278861 -7.35934062061
lowerback -7.94359205102 3.19034608483 3.46954807282
upperback 0.156489600885 3.7452849992 3.94160623314
thorax 4.5755318354 1.89007055127 2.59829388294
lowerneck -19.0579211296 -6.08176683665 -13.1903953891
upperneck 21.3595511599 -7.82384602455 12.8911615564
head 11.1326461105 -3.16531042082 5.72770900997
rclavicle 2.94155767671e-14 9.92057595283e-15
rhumerus -26.664596412 15.6435701475 -84.6145216635
rradius 39.9503400768
rwrist -18.8656746007
rhand -30.7592036285 -22.2004055891
rfingers 7.12502
rthumb -4.05061200067 -52.141535239
lclavicle 2.94155767671e-14 9.92057595283e-15
lhumerus -53.4058717363 -9.48055055497 96.1640510322
lradius 26.93944661
lwrist 8.01527973984
lhand -10.6139836463 -25.433205142
lfingers 7.12502
lthumb 15.3921590911 3.97071214754
rfemur 16.3958591631 5.93858224716 33.0071525655
rtibia -0.000100090769522
rfoot -8.45340579267 6.77090556707
rtoes -12.2698313351
lfemur -43.1249156601 -5.069596912 -7.94618922529
ltibia 19.9816680399
lfoot -15.6338745915 14.9681948272
ltoes -12.3201376989
113
root 9.70319492097 16.8520889154 20.6511152358 6.68030002746 -1.63081571519 -7.5445176804
lowerback -8.58398119216 3.28312280744 3.15563687774
upperback 0.229697169127 3.852818559 4.02358460052
thorax 4.98394873921 1.93439839967 2.91958004712
lowerneck -19.021572953 -6.06588727219 -13.4653290475
upperneck 21.0049532161 -7.77512446271 13.2322978718
head 11.0161807166 -3.12927941365 5.90200876925
rclavicle 7.8476686748e-14 1.01012188566e-14
rhumerus -27.4056321418 15.1313720921 -85.1625964896
rradius 39.1049281036
rwrist -17.9463128968
rhand -29.8973304964 -21.9929360895
rfingers 7.12502
rthumb -3.21830870739 -51.9483814717
lclavicle 7.8476686748e-14 1.01012188566e-14
lhumerus -53.4810432972 -9.15605797883 96.2330416268
lradius 26.7931212688
lwrist 7.6847259161
lhand -7.50979414484 -20.9371477636
lfingers 7.12502
lthumb 18.3805723389 8.21554096164
rfemur 18.243886926 5.85440003027 33.0230497902
rtibia -6.33230072389e-07
rfoot -7.6744791317 6.99426170682
rtoes -10.259223369
lfemur -43.0959032481 -2.15907435712 -9.8918736569
ltibia 21.9031548629
lfoot -15.4113466662 12.0808442605
ltoes -12.2493074546
114
root 9.76873903034 16.7501098279 21.2718126605 6.92929713921 -1.5870059327 -7.87573696646
lowerback -8.79192718905 3.37079451374 3.38491749772
upperback -0.0416036866871 3.95209342239 3.90724614855
thorax 4.83769477214 1.98946944492 2.68425115648
lowerneck -19.3900182325 -6.23578771849 -13.2627687841
upperneck 21.3296737171 -7.9916005166 12.9444935245
head 11.2185990673 -3.2301008543 5.72880949823
rclavicle 5.03794680039e-14 5.07218124098e-14
rhumerus -29.0052296761 14.3115067084 -86.0441568248
rradius 38.4850886305
rwrist -17.1651948068
rhand -29.6111262353 -21.8945418564
rfingers 7.12502
rthumb -2.94194081781 -51.8540548898
lclavicle 5.03794680039e-14 5.07218124098e-14
lhumerus -53.8797015568 -9.05327902398 96.0726399772
lradius 26.6411180943
lwrist 6.43565056342
lhand -9.38374165153 -25.3455184026
lfingers 7.12502
lthumb 16.5770917865 3.9677803363
rfemur 20.2332995515 5.63747273587 33.1334275253
rtibia -4.19209681541e-08
rfoot -6.34450435519 6.9434549688
rtoes -15.64462317
lfemur -42.6472863792 0.374324675543 -11.4975748032
ltibia 24.3148002531
lfoot -13.1756041836 8.85202113879
ltoes -12.4610187757
